<svg width="232" height="170" viewBox="0 0 231.818 170" fill="none" xmlns="http://www.w3.org/2000/svg"><path fill-rule="evenodd" clip-rule="evenodd" d="M115.909 0C120.664 0 125.363 0.282345 129.975 0.84517L132.654 1.19984C188.732 9.32217 231.818 57.5821 231.818 115.909V170H0V115.909C0 51.8967 51.8967 0 115.909 0ZM156.386 15.5505C139.333 8.6639 120.178 9.51474 102.666 15.1301C81.7595 22.4127 65.8973 33.8913 54.4833 48.4464C38.4843 68.8484 30.9091 95.7129 30.9091 126.579V162.273H61.8182V123.636C61.8182 85.2206 92.9478 54.0909 131.364 54.0909C140.97 54.0909 150.125 56.0386 158.454 59.5694C160.103 60.2655 161.728 61.0239 163.307 61.8408C172.543 66.6242 181.558 72.5435 188.105 80.6263C195.59 89.8677 200.909 103.026 200.909 115.909V162.273H224.091V115.909C224.091 70.4775 196.078 31.5798 156.386 15.5505ZM146.818 69.5455C128.045 69.5455 111.865 80.7143 104.575 96.772C101.931 102.605 100.455 109.078 100.455 115.909V162.273H115.909V125.568C115.909 110.355 126.247 97.5813 140.268 93.8366L142.321 93.3611C144.399 92.9476 146.554 92.7273 148.75 92.7273C166.882 92.7273 181.591 107.436 181.591 125.568V162.273H193.182V115.909C193.182 99.5311 184.69 85.1423 171.864 76.8879L171.856 76.8803C168.434 74.6683 164.689 72.9036 160.726 71.6659L160.718 71.6584C156.339 70.2824 151.674 69.5455 146.818 69.5455ZM143.202 106.278C141.601 103.514 138.071 102.61 135.37 104.313C128.317 108.762 123.636 116.619 123.636 125.568V162.273H146.818V119.773C146.818 118.992 146.784 118.219 146.72 117.456L146.433 115.2C145.885 112 144.772 108.991 143.202 106.278Z" fill="black"/></svg>